<svg width="290.70485620011317" height="322.0087585449219" viewBox="0 0 350 387.6889673048357" class="css-1j8o68f">
      <defs id="SvgjsDefs1653"></defs>
      <g id="SvgjsG1654" featurekey="symbolContainer" transform="matrix(5.936,0,0,5.936,27,20)" fill="#222831">
        <circle cx="25" cy="25" r="25"></circle>
      </g>
      <g id="SvgjsG1655" featurekey="monogramFeature-0"
        transform="matrix(4.713805198161341,0,0,4.713805198161341,90.85858440551598,-8.707091458724975)" fill="#eeeeee">
        <path
          d="M22.32 42.9 l0 -19.32 l-1.5 -0.42 c-0.54 -0.18 -0.84 -0.78 -0.84 -1.32 l0 -5.64 c0 -0.48 0.36 -1.2 0.96 -1.2 l10.8 0 c0.48 0 0.96 0.66 0.96 1.08 l0 6 c0 0.48 -0.36 0.9 -0.84 1.08 l-1.44 0.42 l-0.06 20.7 c-0.06 7.68 -3.18 11.34 -10.98 11.34 c-7.44 0 -11.34 -2.34 -11.34 -10.2 l0 -6.36 c0 -0.48 0.42 -1.14 0.96 -1.14 l5.88 0 c0.6 0 0.96 0.66 0.96 1.14 l0.06 5.76 c0 1.14 0.6 1.86 1.8 1.86 l3.6 -2.76 l0 0.72 l0 0.06 l-2.76 2.04 l1.02 0 c0.12 0 0.24 0 0.36 -0.06 l1.38 -1.02 c0 0.18 -0.06 0.66 -0.12 0.78 c-0.06 0.06 -0.12 0.12 -0.18 0.12 c0.9 0 1.2 -1.26 1.26 -1.92 z M14.94 20.58 l1.62 -1.26 l0.96 0 l-2.58 1.98 l0 -0.72 z M14.94 22.200000000000003 l3.84 -2.88 l0.24 0 l0 0.6 l-4.08 3 l0 -0.72 z M14.94 23.880000000000003 l4.08 -3.06 l0 0.66 l-4.08 3.06 l0 -0.66 z M14.94 26.22 l0 -0.72 l4.08 -3.06 l0 0.72 z M15.18 27 l4.14 -3.18 c0.18 0.18 0.36 0.24 0.54 0.36 l-4.26 3.24 c-0.18 0 -0.42 -0.3 -0.42 -0.42 z M17.1 27.9 l-0.66 -0.18 l4.32 -3.24 l0.06 -0.06 l0.54 0.18 c0 0.12 0 0.12 -0.06 0.18 l-4.14 3.06 z M17.22 29.46 l0 -0.72 l4.14 -3.06 l0 0.72 z M17.22 30.42 l4.14 -3.06 l0 0.72 l-4.14 3.06 l0 -0.72 z M17.22 32.760000000000005 l0 -0.66 l4.08 -3.06 l0.06 0 l0 0.72 l-4.02 3 l-0.12 0 z M17.22 34.44 l0 -0.72 l4.14 -3.06 l0 0.72 z M17.22 35.4 l4.14 -3.06 l0 0.72 l-4.14 3.06 l0 -0.72 z M17.22 37.8 l0 -0.72 l4.08 -3.06 l0.06 0 l0 0.72 l-4.02 3 c-0.06 0 -0.06 0.06 -0.12 0.06 z M17.22 39.42 l0 -0.72 l4.14 -3.06 l0 0.72 z M17.22 40.379999999999995 l4.14 -3.06 l0 0.72 l-4.14 3.06 l0 -0.72 z M17.22 42.72 l0 -0.66 l4.14 -3.06 l0 0.66 z M17.22 43.68 l4.14 -3.06 l0 0.72 l-4.14 3.06 l0 -0.72 z M4.62 42.3 l-1.62 1.14 c0 -0.48 0.36 -1.14 0.9 -1.14 l0.72 0 z M3 44.4 l2.88 -2.1 l0.96 0 l-3.84 2.82 l0 -0.72 z M17.22 46.08 l0 -0.72 l4.08 -3.06 l0.06 0 l0 0.66 z M3 46.8 l0 -0.72 l4.02 -3 l0.06 -0.06 l0 0.72 z M3 48.480000000000004 l0 -0.72 l4.08 -3.06 l0 0.72 z M3 49.38 l4.08 -3.06 c0 0.24 0.06 0.48 0.06 0.72 l-4.14 3.06 l0 -0.48 l0 -0.24 z M3.12 51 l4.02 -3.06 l0.06 0 c0 0.06 0.06 0.54 0.06 0.66 l-4.14 3.06 c-0.06 -0.18 -0.06 -0.42 -0.06 -0.6 c0 -0.06 0 -0.06 0.06 -0.06 z M3.3 52.5 l4.08 -3.06 l0.12 0.6 l-4.08 3.06 l-0.06 0 l-0.12 -0.54 c0 -0.06 0 -0.06 0.06 -0.06 z M3.6 53.88 l4.14 -3.06 l0.18 0.54 c0 0.06 -0.06 0.06 -0.06 0.06 l-4.14 3.06 s-0.12 -0.48 -0.12 -0.6 z M4.02 55.26 l4.2 -3.12 l0.24 0.48 l0 0.06 l-4.2 3.12 c0 -0.06 -0.06 -0.18 -0.06 -0.24 c-0.06 -0.06 -0.18 -0.3 -0.18 -0.3 z M4.68 56.4 l4.2 -3.12 l0.3 0.48 l-4.14 3.12 c-0.18 -0.06 -0.42 -0.42 -0.42 -0.42 z M5.46 57.48 l4.2 -3.12 l0.06 -0.06 l0.42 0.42 l-4.26 3.18 z M6.54 58.38 l4.26 -3.24 l0.54 0.36 l-4.26 3.18 c-0.18 -0.06 -0.54 -0.24 -0.54 -0.3 z M7.8 59.1 l0 -0.06 l4.26 -3.18 l0.06 0 l0.66 0.24 l-4.38 3.24 l-0.12 -0.06 c-0.06 0 -0.42 -0.18 -0.48 -0.18 z M18 59.7 l4.62 -3.42 l0.96 -0.24 l-0.24 0.42 l-3.9 2.94 c-0.06 0 -1.2 0.3 -1.38 0.3 l-0.06 0 z M9.36 59.58 l4.38 -3.3 l0.78 0.12 l-4.38 3.3 c-0.18 0 -0.72 -0.06 -0.78 -0.12 z M11.22 59.82 l4.32 -3.24 c0.06 -0.06 0.06 -0.06 0.12 -0.06 c0.24 0.06 0.78 0.06 0.78 0.06 l0.06 0.06 l-4.44 3.3 c-0.36 0 -0.6 0 -0.84 -0.12 z M21 56.52 l-4.44 3.36 c-0.06 0.06 -0.06 0.06 -0.12 0.06 l-0.78 0 l-0.18 0 l4.44 -3.3 c0.24 -0.06 0.9 -0.06 1.08 -0.12 z M13.26 59.94 l4.44 -3.3 l0.18 0 l0.78 0 l-4.44 3.36 z">
        </path>
      </g>
</svg>